PathFileType	4	(X/Y/Z)	C:/Users/beibeiliu/ov580/test_trc/User2\sequence.8_training_dense_right.trc
DataRate	CameraRate	NumFrames	NumMarkers	Units	OrigDataRate	OrigDataStartFrame	OrigNumFrames
120	120	8	19	mm	120	30	117
Frame#	Time	ThumbCMC			ThumbMCP			ThumbIP			ThumbTip			IndexMCP			IndexPIP			IndexTip			MiddleMCP			MiddlePIP			MiddleTip			RingMCP			RingPIP			RingTip			PinkyMCP			PinkyPIP			PinkyTip			BackHand1			BackHand2			BackHand3	
		X0	Y0	Z0	X1	Y1	Z1	X2	Y2	Z2	X3	Y3	Z3	X4	Y4	Z4	X5	Y5	Z5	X6	Y6	Z6	X7	Y7	Z7	X8	Y8	Z8	X9	Y9	Z9	X10	Y10	Z10	X11	Y11	Z11	X12	Y12	Z12	X13	Y13	Z13	X14	Y14	Z14	X15	Y15	Z15	X16	Y16	Z16	X17	Y17	Z17	X18	Y18	Z18	
29	0.241667	120.538	55.6098	-14.7106	90.0613	58.7456	-35.9912	67.2504	53.285	-66.5471	64.8932	33.234	-88.6116	127.018	45.7446	-98.7674	103.032	39.3687	-111.753	74.8512	23.8578	-104.455	156.591	33.1636	-104.685	148.797	33.8773	-135.458	139.702	37.5795	-166.442	164.467	6.37154	-93.6152	166.884	7.23084	-123.385	166.929	8.75965	-151.386	159.114	-16.8728	-76.8012	165.574	-23.544	-104.084	172.77	-27.8223	-123.075	166.756	6.86003	-40.1948	173.309	5.25569	-5.71088	159.738	43.5812	-22.3109	
30	0.25	112.109	52.13	-13.7618	84.6745	48.0906	-37.4254	68.5022	38.0989	-65.653	68.8348	23.0852	-88.5531	126.762	57.6566	-91.975	107.936	39.2516	-110.707	85.9567	18.2576	-108.681	159.175	50.3962	-97.9076	154.595	54.044	-130.829	148.828	54.6815	-160.775	175.88	27.9703	-91.4981	178.413	33.784	-117.744	182.222	34.9568	-148.727	175.435	2.7885	-76.7173	183.939	3.90371	-102.546	194.661	4.47728	-120.883	173.228	19.3612	-35.944	175.617	18.2564	-4.74797	156.362	50.9118	-16.6022	
31	0.258333	106.854	45.1965	-10.6109	83.2166	37.1247	-41.1312	71.9181	28.5547	-70.3121	76.311	17.6158	-97.9614	126.721	67.0502	-85.2814	108.729	49.2506	-109.512	96.7531	18.9483	-111.647	158.209	72.7905	-90.2788	155.543	78.6632	-120.851	148.672	85.6532	-153.089	177.661	55.6204	-84.4764	183.218	64.1577	-109.924	182.899	74.1809	-134.378	187.212	25.5538	-72.244	195.688	33.8101	-95.6261	206.01	43.6658	-116.103	173.626	37.5192	-32.1647	175.729	33.2014	2.40406	151.151	56.304	-11.5187	
32	0.266667	97.8801	41.165	-5.93034	78.0716	32.1339	-41.104	69.0318	25.6433	-74.3896	78.8978	18.5629	-100.404	115.576	76.9224	-78.2992	99.635	57.1999	-105.794	95.8742	28.7959	-110.335	146.315	87.0997	-77.8322	141.001	100.396	-110.331	141.194	106.674	-141.79	170.273	74.0247	-74.4879	173.582	88.6915	-98.0686	176.898	101.149	-126.194	183.362	46.5232	-66.1379	196.863	56.6189	-88.3038	204.044	72.54	-110.489	171.04	49.735	-26.031	173.102	39.4233	2.85103	141.586	62.9558	-8.5976	
33	0.275	90.9043	34.9029	-5.96519	69.4086	23.8206	-34.4802	61.4881	16.5949	-69.1893	69.3383	13.5501	-99.513	98.3702	73.8121	-78.7236	90.166	56.153	-102.885	90.7031	23.9305	-109.389	135.536	85.4581	-76.1855	128.288	100.086	-106.961	124.154	107.769	-135.708	159.893	77.268	-75.4446	162.897	90.7655	-96.5628	164.827	101.889	-121.224	175.462	51.2472	-66.546	185.677	62.045	-86.4138	196.66	78.4817	-105.481	160.149	52.7975	-24.0266	161.681	42.9225	3.43869	126.439	59.8195	-2.89492	
34	0.283333	83.3054	29.5312	-6.10928	59.6795	16.6462	-33.7866	54.4809	6.53719	-62.6518	57.1888	0.0663152	-94.091	92.4175	60.8219	-79.2985	76.564	39.541	-103.528	76.9465	10.0669	-105.997	118.297	77.9743	-81.4926	115.271	85.293	-110.366	110.831	90.4245	-144.266	145.99	66.0841	-76.862	150.228	76.2757	-99.716	148.736	91.261	-128.942	163.707	41.1739	-68.7566	174.032	50.4734	-90.6024	180.723	65.2407	-107.954	150.877	42.6589	-25.4365	152.829	36.3601	5.41855	118.364	55.246	-6.95053	
35	0.291667	75.6775	24.4387	0.246701	50.5452	8.5293	-28.9776	39.5913	-6.37111	-56.6467	47.7048	-16.6419	-81.4247	75.2056	45.3515	-82.123	68.5989	22.4724	-99.4951	61.6847	-9.22867	-98.185	108.011	60.303	-88.8687	102.15	62.7365	-118.756	98.7396	61.7693	-149.484	136.745	46.9918	-81.5973	134.668	57.5705	-109.763	137.101	63.965	-138.803	152.169	27.7653	-72.4568	158.061	31.1256	-92.3155	167.45	41.9541	-114.827	138.819	38.1045	-27.4999	145.799	32.7537	5.65669	112.993	49.7171	-8.8079	
36	0.3	68.3012	25.563	0.834596	43.5161	5.93255	-16.1809	28.8256	-12.7093	-48.0976	31.5114	-27.8589	-68.1605	67.768	30.6494	-80.1966	51.0172	6.45488	-92.2975	49.9038	-24.6808	-85.4429	93.6073	43.048	-90.2786	87.9188	38.5501	-119.486	77.3807	35.2072	-151.586	123.017	29.8313	-84.2369	121.806	32.583	-114.997	118.774	34.4752	-143.146	140.805	7.82481	-69.7029	148.049	11.2146	-98.9796	150.468	17.1541	-115.201	130.218	27.621	-29.7575	138.074	31.484	-1.51735	106.586	45.9388	-8.37304	
